 <svg
        xmlns="http://www.w3.org/2000/svg"
        width="64"
        height="64"
        viewBox="100 0 300 300"
        style="overflow: visible"
        data-bbox="43.673 91.461 424.655 329.078"
        w-8
        h-8
        mr-2
      >
        <g
          transform="matrix(1.4044512699263183, 0, 0, 1.4044512699263183, -117.86235423979087, -134.15890527870528)"
          data-uid="o_fec78ci97_7"
        >
          <g data-uid="o_fec78ci97_8">
            <g data-uid="o_fec78ci97_9">
              <path
                class="st1"
                d="M186.4 181c-3.8 2.6-6.1 8-1.8 14.4c4.2 6.5 64.9 50.2 67.1 51.4c2.2 1.2 4.5 1.4 10.1-2.8
        c5.7-4.2 53-37.4 54.2-38.4c1.9-1.6 2.4-5.5 0-7.3c0 0-57.3 40-59.2 41.7c-1.9 1.6-4.8-1-4.2-4.4c0.6-3.4 1-3.8 8.2-9.1
        c7.3-5.3 48.6-34.5 50.4-35.8c2.1-1.5 2.2-4-1.3-6.3c-4.8-3.2-57-37.8-58.8-39c-1.8-1.2-4.2-2.3-7.8 0.1
        C239.7 147.8 193.5 176.3 186.4 181z"
                fill="rgba(70,150,165,1)"
                data-uid="o_fec78ci97_10"
              ></path>
              <path
                class="st1"
                d="M251.7 251c-1.5-0.8-28.1-19.9-47.4-34.7v31c0 22.6 68.2 34.7 90.8 6.9v-29.6
        c-13.9 9.8-30.1 21.3-33.3 23.6C256.2 252.5 254 252.3 251.7 251z"
                fill="rgba(70,150,165,1)"
                data-uid="o_fec78ci97_11"
              ></path>
            </g>
            <path
              class="st2"
              d="M280.6 217.1c0 0 10.1 4.8 10.9 23.9l-4.9-1.3l-3.9 7.8c-1.7-21-10.7-24-10.7-24L280.6 217.1z"
              fill="rgba(138,77,199,1)"
              data-uid="o_fec78ci97_12"
            ></path>
          </g>
        </g>
      </svg>